<?xml version="1.0" encoding="utf-8"?>
<!-- Generator: Adobe Illustrator 19.0.0, SVG Export Plug-In . SVG Version: 6.00 Build 0)  -->
<svg version="1.1" id="Layer_1" xmlns="http://www.w3.org/2000/svg" xmlns:xlink="http://www.w3.org/1999/xlink" x="0px" y="0px"
	 viewBox="194 -104 1000 1000" style="enable-background:new 194 -104 1000 1000;" xml:space="preserve">
<style type="text/css">
	.st0{fill:#FFFFFF;}
</style>
<path class="st0" d="M389.9-103.8C282.2-103.8,194-15.6,194,92.1V700c0,107.7,88.2,195.8,195.9,195.8h607.8
	c107.7,0,195.8-88.1,195.8-195.8V92.1c0-107.7-88.1-195.9-195.8-195.9L389.9-103.8L389.9-103.8z M439.1,61.2
	c51.6,0,83.5,33.9,84.4,78.5c0,43.6-32.8,78.4-85.4,78.4h-1c-50.7,0-83.4-34.9-83.4-78.4C353.8,95.1,387.5,61.2,439.1,61.2
	L439.1,61.2z M884.2,269.5c99.3,0,173.8,64.9,173.8,204.4v260.4h-151v-243c0-61.1-21.8-102.7-76.5-102.7
	c-41.7,0-66.6,28.1-77.5,55.2c-4,9.7-5,23.3-5,36.8v253.7h-151c0,0,2-411.6,0-454.2h151v64.3C768.2,313.5,804.1,269.5,884.2,269.5
	L884.2,269.5z M362.7,280.2h151v454.2h-151V280.2L362.7,280.2z"/>
</svg>
