<?xml version="1.0" encoding="utf-8"?>
<!-- Generator: Adobe Illustrator 19.0.0, SVG Export Plug-In . SVG Version: 6.00 Build 0)  -->
<svg version="1.1" id="Layer_1" xmlns="http://www.w3.org/2000/svg" xmlns:xlink="http://www.w3.org/1999/xlink" x="0px" y="0px"
	 viewBox="310 -104 1231 1000" style="enable-background:new 310 -104 1231 1000;" xml:space="preserve">
<style type="text/css">
	.st0{fill:#FFFFFF;}
</style>
<path class="st0" d="M1541.1,14.5c-34.3,51-76.3,94.5-126.2,130.4c0.5,9.6,0.7,20.5,0.7,32.7c0,67.5-9.8,135.1-29.5,202.8
	c-19.7,67.7-49.8,132.5-90.2,194.3c-40.5,61.9-88.6,116.7-144.6,164.5S1028.1,825,949.6,853.4S786.9,896,697.1,896
	C557,896,428,858.2,310,782.5c20.9,2.3,41,3.5,60.2,3.5c117.1,0,221.6-36.1,313.7-108.2c-54.6-1-103.5-17.8-146.7-50.4
	c-43.2-32.6-72.9-74.3-89.2-125c16.1,3.1,31.9,4.6,47.6,4.6c22.5,0,44.7-2.9,66.5-8.8c-58.3-11.7-106.6-40.7-145-87
	c-38.4-46.4-57.6-99.9-57.6-160.5v-3.1c35.8,19.8,73.9,30.3,114.4,31.6c-34.5-23-61.9-53-82.1-90c-20.2-37-30.3-77-30.3-120.1
	c0-45.4,11.4-87.7,34.2-126.9C459.1,19.8,535.9,82,626,128.5C716.2,175,813,200.9,916.3,206c-4.4-18.4-6.6-37.5-6.6-57.5
	c0-69.7,24.7-129.2,74-178.5c49.3-49.3,108.8-74,178.5-74c73,0,134.4,26.6,184.4,79.7c57.1-11.3,110.5-31.8,160.3-61.3
	c-19.2,60.4-56.2,107-110.9,139.8C1446.3,48.1,1494.7,34.9,1541.1,14.5L1541.1,14.5z"/>
</svg>
